<?xml version="1.0" encoding="UTF-8" standalone="no"?>
<!-- Created with Inkscape (http://www.inkscape.org/) -->

<svg
   width="6in"
   height="4in"
   viewBox="0 0 5.9999997 4.0000001"
   version="1.1"
   id="svg5"
   sodipodi:docname="beta_logo.svg"
   inkscape:version="1.2 (dc2aeda, 2022-05-15)"
   xmlns:inkscape="http://www.inkscape.org/namespaces/inkscape"
   xmlns:sodipodi="http://sodipodi.sourceforge.net/DTD/sodipodi-0.dtd"
   xmlns="http://www.w3.org/2000/svg"
   xmlns:svg="http://www.w3.org/2000/svg">
  <sodipodi:namedview
     id="namedview7"
     pagecolor="#ffffff"
     bordercolor="#000000"
     borderopacity="0.25"
     inkscape:showpageshadow="2"
     inkscape:pageopacity="0.0"
     inkscape:pagecheckerboard="0"
     inkscape:deskcolor="#d1d1d1"
     inkscape:document-units="mm"
     showgrid="false"
     inkscape:zoom="0.59508979"
     inkscape:cx="138.63454"
     inkscape:cy="299.95473"
     inkscape:window-width="990"
     inkscape:window-height="653"
     inkscape:window-x="24"
     inkscape:window-y="88"
     inkscape:window-maximized="0"
     inkscape:current-layer="layer1" />
  <defs
     id="defs2" />
  <g
     inkscape:label="Layer 1"
     inkscape:groupmode="layer"
     id="layer1"
     transform="translate(-6.7736464,-15.064605)">
    <path
       id="path1646"
       style="font-weight:normal;font-size:0.566743px;font-family:sans-serif;-inkscape-font-specification:sans-serif;stroke-width:0.0116889"
       d="M 7.9630385 15.761525 C 7.839481 15.761525 7.7363529 15.791258 7.6536716 15.850717 C 7.5719187 15.909237 7.5166377 15.977057 7.4878391 16.054168 C 7.4599681 16.131278 7.44603 16.248799 7.44603 16.406727 L 7.44603 17.924265 C 7.44603 18.051538 7.4293234 18.193676 7.3958795 18.350677 L 7.6257989 18.350677 C 7.6592429 18.223404 7.6759698 18.070591 7.6759698 17.892221 L 7.6759698 17.633025 C 7.7577217 17.730575 7.8636177 17.779347 7.9936781 17.779347 C 8.1079461 17.779347 8.2059733 17.757506 8.2877252 17.713836 C 8.3704061 17.670166 8.4428682 17.597253 8.505112 17.495066 C 8.568284 17.391946 8.5998589 17.275353 8.5998589 17.145293 C 8.5998589 16.906543 8.4814082 16.731426 8.2445123 16.619944 C 8.4033718 16.513108 8.4828139 16.376072 8.4828139 16.208851 C 8.4828139 16.06579 8.4326338 15.955701 8.3323012 15.87859 C 8.2328973 15.80055 8.109821 15.761525 7.9630385 15.761525 z M 7.9655206 15.857696 C 7.9665506 15.857687 7.9675627 15.857696 7.9685927 15.857696 C 8.0512736 15.857696 8.1181607 15.888819 8.1692559 15.951059 C 8.2212799 16.013309 8.2472995 16.102947 8.2472995 16.22 C 8.2472995 16.350985 8.2143205 16.472226 8.1483616 16.583709 C 8.0749706 16.561419 8.0136592 16.550282 7.9644219 16.550282 C 7.885456 16.550282 7.845973 16.572546 7.845973 16.617136 C 7.845973 16.666376 7.8928901 16.691009 7.9867201 16.691009 C 8.0313121 16.691009 8.0814722 16.684024 8.1372125 16.670114 C 8.1975974 16.724934 8.2468283 16.804826 8.2849175 16.909799 C 8.3239365 17.013847 8.3434503 17.116027 8.3434503 17.216359 C 8.3434503 17.347343 8.3141883 17.458834 8.2556614 17.550811 C 8.1971344 17.641851 8.1051572 17.687367 7.9797418 17.687367 C 7.8496815 17.687367 7.7484323 17.627437 7.6759698 17.507598 L 7.6759698 16.299428 C 7.6759698 16.18237 7.6847897 16.098303 7.7024387 16.04721 C 7.7200907 15.99519 7.7521395 15.95058 7.7985894 15.913421 C 7.8452274 15.876841 7.9008778 15.858266 7.9655206 15.857696 z M 10.706854 16.10853 C 10.591657 16.238598 10.493176 16.332888 10.411423 16.391408 C 10.329673 16.449927 10.229351 16.501021 10.110438 16.544687 L 10.082566 16.647816 L 10.27208 16.647816 L 10.051906 17.401661 C 10.027756 17.486201 10.015671 17.555403 10.015671 17.609283 C 10.015671 17.658523 10.032855 17.699413 10.067225 17.731923 C 10.102525 17.763513 10.151775 17.779306 10.214951 17.779306 C 10.289271 17.779306 10.364975 17.753283 10.442083 17.701263 C 10.519193 17.649243 10.589795 17.567487 10.653895 17.456003 L 10.605108 17.425363 C 10.548448 17.506193 10.498739 17.562853 10.455999 17.595367 C 10.439279 17.608377 10.423032 17.614878 10.407232 17.614878 C 10.397022 17.614878 10.387719 17.610675 10.379359 17.602365 C 10.370959 17.593065 10.366827 17.582382 10.366827 17.570302 C 10.366827 17.544282 10.374225 17.506212 10.389125 17.456044 L 10.621852 16.647796 L 10.8016 16.647796 L 10.850388 16.487558 L 10.667832 16.487558 L 10.779323 16.10853 L 10.706854 16.10853 z M 11.543462 16.448496 C 11.450268 16.449164 11.350683 16.491902 11.244695 16.57669 C 11.114637 16.679809 11.00965 16.81637 10.929754 16.986378 C 10.849854 17.155457 10.809901 17.305502 10.809901 17.436492 C 10.809901 17.524752 10.828961 17.604173 10.86705 17.674773 C 10.90514 17.744443 10.96691 17.779286 11.052374 17.779286 C 11.117403 17.779286 11.17872 17.756981 11.236313 17.712391 C 11.335713 17.635282 11.439295 17.504299 11.547063 17.319427 L 11.513637 17.432301 C 11.483907 17.530781 11.46904 17.598142 11.46904 17.634368 C 11.46904 17.676168 11.482979 17.711008 11.510849 17.738881 C 11.538719 17.765831 11.57913 17.779286 11.632085 17.779286 C 11.718475 17.779286 11.798827 17.751892 11.873154 17.697092 C 11.948404 17.641352 12.019006 17.553092 12.084966 17.432321 L 12.036199 17.407236 C 11.983249 17.480626 11.949819 17.52335 11.935878 17.53543 C 11.901508 17.56516 11.874547 17.580047 11.855047 17.580047 C 11.846647 17.580047 11.838281 17.575844 11.829941 17.567514 C 11.822541 17.559214 11.818833 17.549428 11.818833 17.538258 C 11.818833 17.531758 11.820244 17.521558 11.823044 17.507618 L 11.850917 17.394724 L 12.121242 16.468047 L 11.79094 16.487518 L 11.740769 16.658925 C 11.725899 16.579035 11.702667 16.524209 11.671087 16.494476 C 11.639497 16.463816 11.597677 16.448496 11.54566 16.448496 C 11.544933 16.448496 11.544178 16.448491 11.543483 16.448496 L 11.543462 16.448496 z M 9.7096612 16.448536 C 9.5566566 16.449248 9.4041099 16.495237 9.2520196 16.586496 C 9.0996626 16.678466 8.9788994 16.800636 8.8897149 16.952992 C 8.80146 17.105349 8.7573296 17.257707 8.7573296 17.410064 C 8.7573296 17.507614 8.7870461 17.593542 8.846502 17.667856 C 8.9059579 17.742186 9.0132583 17.779347 9.1684014 17.779347 C 9.2910317 17.779347 9.4029948 17.751933 9.5042575 17.697133 C 9.60552 17.642323 9.7095543 17.550344 9.8163913 17.421213 L 9.7745822 17.383595 C 9.6881833 17.462565 9.6120062 17.517841 9.5460463 17.549428 C 9.4810163 17.581018 9.4159901 17.596811 9.3509576 17.596811 C 9.2831416 17.596811 9.2287916 17.575897 9.1879123 17.534087 C 9.1479654 17.492277 9.1279961 17.436527 9.1279961 17.366851 C 9.1279961 17.327841 9.132186 17.27815 9.140549 17.217763 C 9.2548074 17.208463 9.3458468 17.194533 9.413661 17.175953 C 9.5149244 17.148083 9.6064441 17.107673 9.6881971 17.054717 C 9.7699531 17.000827 9.8377678 16.930228 9.8916477 16.842905 C 9.9306676 16.778805 9.9501804 16.712825 9.9501804 16.645009 C 9.9501804 16.588339 9.9301898 16.541422 9.8902439 16.504262 C 9.8502959 16.467102 9.7913198 16.448536 9.7132826 16.448536 C 9.7120826 16.448536 9.7108612 16.44853 9.7096612 16.448536 z M 11.570867 16.534942 L 11.570908 16.534942 C 11.571346 16.534936 11.571798 16.534942 11.572271 16.534942 C 11.601081 16.534942 11.623829 16.546553 11.640549 16.569773 C 11.663769 16.603213 11.67538 16.657563 11.67538 16.732818 C 11.67538 16.868452 11.631719 17.023599 11.544398 17.198252 C 11.495158 17.297662 11.439886 17.381725 11.378566 17.450469 C 11.335826 17.498779 11.293556 17.522938 11.251755 17.522938 C 11.232245 17.522938 11.214133 17.512234 11.197413 17.490875 C 11.181623 17.468585 11.173732 17.432835 11.173732 17.383595 C 11.173732 17.255392 11.209481 17.103487 11.281011 16.927907 C 11.353471 16.751391 11.420831 16.634344 11.483078 16.576751 C 11.513244 16.549324 11.5425 16.535384 11.570867 16.534942 z M 9.5575616 16.540516 C 9.5579107 16.540513 9.5582484 16.540516 9.5585992 16.540516 C 9.5808991 16.540516 9.5990282 16.547915 9.6129611 16.562815 C 9.6278281 16.577675 9.6352593 16.598125 9.6352593 16.624135 C 9.6352593 16.685455 9.6194627 16.751409 9.5878757 16.822011 C 9.5562857 16.891681 9.5186616 16.949731 9.4750013 16.996185 C 9.4322644 17.041705 9.3881363 17.075155 9.3426161 17.096526 C 9.2980231 17.116956 9.2348545 17.133213 9.1531019 17.145293 L 9.1530816 17.145293 C 9.2208995 16.91769 9.3059149 16.74722 9.4081068 16.63388 C 9.4634128 16.57212 9.5132303 16.540996 9.5575616 16.540516 z M 8.8023532 17.906605 C 8.7695622 17.906851 8.73961 17.910931 8.7124688 17.918914 C 8.6846658 17.927114 8.6608907 17.938999 8.6411797 17.954599 C 8.6208468 17.970669 8.6052982 17.990371 8.5945082 18.013681 C 8.5837192 18.036991 8.5783135 18.063447 8.5783135 18.093027 C 8.5783135 18.124217 8.5839136 18.151642 8.5951185 18.175282 C 8.6063235 18.198752 8.6218925 18.218108 8.6418104 18.233388 C 8.6621444 18.248977 8.6860177 18.260472 8.7134047 18.267872 C 8.7409996 18.275072 8.7715896 18.278716 8.8052016 18.278716 C 8.8230445 18.278716 8.8393384 18.277619 8.8540704 18.275319 C 8.8690093 18.273219 8.8827952 18.270606 8.8954522 18.267506 C 8.9103912 18.263806 8.9224357 18.260306 8.9315647 18.256886 C 8.9409047 18.253486 8.9512816 18.249902 8.9626926 18.246062 L 8.9626723 18.190236 L 8.9583184 18.190236 C 8.9357024 18.205986 8.9114384 18.217817 8.8855035 18.225697 C 8.8595675 18.233597 8.8317587 18.237518 8.8020888 18.237518 C 8.7805098 18.237518 8.7599666 18.234734 8.7404636 18.229034 C 8.7211676 18.223234 8.7042674 18.214404 8.6897434 18.202504 C 8.6758414 18.191094 8.6644247 18.176291 8.6555027 18.158131 C 8.6467927 18.139961 8.6424411 18.118267 8.6424411 18.093027 C 8.6424411 18.068907 8.6463806 18.047677 8.6542616 18.029347 C 8.6623516 18.010857 8.6735557 17.99559 8.6878716 17.98353 C 8.7026036 17.97116 8.7193075 17.962088 8.7379815 17.956288 C 8.7568625 17.950388 8.7780121 17.947377 8.8014581 17.947377 C 8.830091 17.947377 8.8569602 17.951179 8.8820652 17.958729 C 8.9071701 17.966329 8.9324923 17.978343 8.9580132 17.994903 L 8.9626926 17.994903 L 8.9626926 17.938222 C 8.9324006 17.926492 8.9047862 17.918294 8.8798882 17.913624 C 8.8551983 17.908924 8.8304047 17.906626 8.8055067 17.906626 C 8.804975 17.906626 8.8044498 17.906624 8.8039198 17.906626 L 8.8039198 17.906605 C 8.8033979 17.906607 8.8028737 17.906601 8.8023532 17.906605 z M 10.378078 17.906605 C 10.345289 17.906851 10.315312 17.910931 10.288173 17.918914 C 10.260373 17.927114 10.236614 17.938999 10.216904 17.954599 C 10.196574 17.970669 10.181012 17.990371 10.170232 18.013681 C 10.159442 18.036991 10.154038 18.063447 10.154038 18.093027 C 10.154038 18.124217 10.159654 18.151642 10.170883 18.175282 C 10.182083 18.198752 10.197615 18.218108 10.217535 18.233388 C 10.237865 18.248977 10.261719 18.260472 10.289109 18.267872 C 10.316709 18.275072 10.347316 18.278716 10.380926 18.278716 C 10.398776 18.278716 10.415055 18.277619 10.429795 18.275319 C 10.444735 18.273219 10.458547 18.270606 10.471197 18.267506 C 10.486137 18.263806 10.498169 18.260306 10.507289 18.256886 C 10.516589 18.253486 10.526997 18.249902 10.538417 18.246062 L 10.538315 18.190236 L 10.534022 18.190236 C 10.511402 18.205986 10.487137 18.217817 10.461207 18.225697 C 10.435277 18.233597 10.407463 18.237518 10.377793 18.237518 C 10.356203 18.237518 10.335657 18.234734 10.316168 18.229034 C 10.296878 18.223234 10.279977 18.214404 10.265447 18.202504 C 10.251547 18.191094 10.240127 18.176291 10.231207 18.158131 C 10.222507 18.139961 10.218145 18.118267 10.218145 18.093027 C 10.218145 18.068907 10.222046 18.047677 10.229966 18.029347 C 10.238066 18.010857 10.249286 17.99559 10.263596 17.98353 C 10.278326 17.97116 10.295036 17.962088 10.313706 17.956288 C 10.332586 17.950388 10.353732 17.947377 10.377182 17.947377 C 10.405822 17.947377 10.43271 17.951179 10.45781 17.958729 C 10.48292 17.966329 10.508238 17.978343 10.533758 17.994903 L 10.538458 17.994903 L 10.538458 17.938222 C 10.508168 17.926492 10.480574 17.918294 10.455674 17.913624 C 10.430984 17.908924 10.406172 17.906626 10.381272 17.906626 C 10.38074 17.906626 10.380164 17.906624 10.379664 17.906626 L 10.379644 17.906605 C 10.379122 17.906607 10.378598 17.906601 10.378078 17.906605 z M 11.865748 17.906687 C 11.816907 17.907126 11.776486 17.916836 11.744472 17.935638 C 11.711692 17.954768 11.695298 17.979339 11.695298 18.009409 C 11.695298 18.035609 11.705099 18.056913 11.724859 18.073313 C 11.744779 18.089543 11.775291 18.101038 11.816371 18.107798 C 11.836701 18.110998 11.855877 18.113591 11.873927 18.115691 C 11.892197 18.117791 11.909118 18.120406 11.924668 18.123606 C 11.945208 18.127806 11.960464 18.133644 11.970424 18.141204 C 11.980594 18.148804 11.985662 18.160481 11.985662 18.176401 C 11.985662 18.194891 11.974999 18.209684 11.953639 18.220774 C 11.932489 18.231864 11.902809 18.237416 11.864629 18.237416 C 11.837659 18.237416 11.808812 18.233297 11.778102 18.225107 C 11.747382 18.216907 11.720304 18.205264 11.696864 18.190154 L 11.69247 18.190154 L 11.69247 18.249969 C 11.72007 18.259469 11.747157 18.266612 11.773707 18.271412 C 11.800477 18.276212 11.830558 18.278615 11.863958 18.278615 C 11.895078 18.278615 11.921639 18.275707 11.943629 18.269907 C 11.965829 18.264107 11.985216 18.256088 12.001816 18.245798 C 12.016956 18.236298 12.028693 18.224719 12.036993 18.211049 C 12.045493 18.197379 12.049769 18.183565 12.049769 18.169585 L 12.04979 18.169769 C 12.04979 18.144039 12.041086 18.12402 12.023646 18.10971 C 12.006216 18.0954 11.980297 18.084696 11.945847 18.077626 C 11.928827 18.074226 11.908071 18.070938 11.883591 18.067738 C 11.859101 18.064538 11.84022 18.061739 11.82695 18.059539 C 11.80184 18.055039 11.784318 18.048528 11.774358 18.040008 C 11.764358 18.031508 11.759425 18.01973 11.759425 18.00477 C 11.759425 17.98805 11.769322 17.974416 11.789292 17.963816 C 11.809422 17.953206 11.835983 17.947906 11.868963 17.947906 C 11.899043 17.947906 11.928407 17.951702 11.957037 17.959462 C 11.985877 17.967062 12.009109 17.976589 12.026739 17.988169 L 12.031133 17.988169 L 12.031133 17.931731 C 12.010183 17.924631 11.986119 17.918689 11.958929 17.913889 C 11.931749 17.909089 11.901868 17.906687 11.869288 17.906687 C 11.868507 17.906687 11.867701 17.906682 11.866908 17.906687 L 11.866888 17.906687 C 11.866509 17.906689 11.866126 17.906683 11.865748 17.906687 z M 9.9978285 17.910613 L 9.9978285 17.957631 L 10.063807 17.957631 L 10.063807 17.910613 L 9.9978285 17.910613 z M 10.617783 17.910613 L 10.617783 17.957631 L 10.683762 17.957631 L 10.683762 17.910613 L 10.617783 17.910613 z M 7.7467299 17.913014 L 7.7467299 17.955454 L 7.9122979 17.955454 L 7.9122979 18.272084 L 7.9739231 18.272084 L 7.9739231 17.955454 L 8.1394911 17.955454 L 8.1394911 17.913014 L 7.7467299 17.913014 z M 8.201747 17.913014 L 8.201747 18.272084 L 8.5070448 18.272084 L 8.5070448 18.229644 L 8.2633721 18.229644 L 8.2633721 18.096282 L 8.5070448 18.096282 L 8.5070448 18.053842 L 8.2633721 18.053842 L 8.2633721 17.955454 L 8.5070448 17.955454 L 8.5070448 17.913014 L 8.201747 17.913014 z M 9.0498305 17.913014 L 9.0498305 18.272084 L 9.1114556 18.272084 L 9.1114556 18.096282 L 9.3426975 18.096282 L 9.3426975 18.272084 L 9.4043226 18.272084 L 9.4043226 17.913014 L 9.3426975 17.913014 L 9.3426975 18.053842 L 9.1114556 18.053842 L 9.1114556 17.913014 L 9.0498305 17.913014 z M 9.5287937 17.913014 L 9.5287937 18.272084 L 9.5863905 18.272084 L 9.5863905 17.950876 L 9.8060967 18.272084 L 9.88235 18.272084 L 9.88235 17.913014 L 9.8247735 17.913014 L 9.8247735 18.206247 L 9.6243544 17.913014 L 9.5287937 17.913014 z M 10.915004 17.913014 L 10.746323 18.272084 L 10.808884 18.272084 L 10.854314 18.172006 L 11.054754 18.172006 L 11.100184 18.272084 L 11.165838 18.272084 L 10.997177 17.913014 L 10.915004 17.913014 z M 11.236191 17.913014 L 11.236191 18.272084 L 11.293768 18.272084 L 11.293768 17.950876 L 11.513494 18.272084 L 11.589727 18.272084 L 11.589727 17.913014 L 11.532151 17.913014 L 11.532151 18.206247 L 11.331731 17.913014 L 11.236191 17.913014 z M 10.954514 17.954721 L 11.035752 18.131011 L 10.872991 18.131011 L 10.954514 17.954721 z M 10.001592 18.002715 L 10.001592 18.272084 L 10.060105 18.272084 L 10.060105 18.002715 L 10.001592 18.002715 z M 10.621547 18.002715 L 10.621547 18.272084 L 10.680059 18.272084 L 10.680059 18.002715 L 10.621547 18.002715 z " />
  </g>
</svg>
