<?xml version="1.0" encoding="UTF-8" standalone="no"?>
<!-- Created with Inkscape (http://www.inkscape.org/) -->

<svg
   width="8in"
   height="4in"
   viewBox="0 0 7.9999997 4.0000001"
   version="1.1"
   id="svg5"
   sodipodi:docname="beta_logo_blue.svg"
   inkscape:version="1.2 (dc2aeda, 2022-05-15)"
   xmlns:inkscape="http://www.inkscape.org/namespaces/inkscape"
   xmlns:sodipodi="http://sodipodi.sourceforge.net/DTD/sodipodi-0.dtd"
   xmlns="http://www.w3.org/2000/svg"
   xmlns:svg="http://www.w3.org/2000/svg">
  <sodipodi:namedview
     id="namedview7"
     pagecolor="#ffffff"
     bordercolor="#000000"
     borderopacity="0.25"
     inkscape:showpageshadow="2"
     inkscape:pageopacity="0.0"
     inkscape:pagecheckerboard="0"
     inkscape:deskcolor="#d1d1d1"
     inkscape:document-units="mm"
     showgrid="false"
     inkscape:zoom="0.59508979"
     inkscape:cx="413.383"
     inkscape:cy="311.71767"
     inkscape:window-width="1055"
     inkscape:window-height="653"
     inkscape:window-x="24"
     inkscape:window-y="66"
     inkscape:window-maximized="0"
     inkscape:current-layer="layer1" />
  <defs
     id="defs2" />
  <g
     inkscape:label="Layer 1"
     inkscape:groupmode="layer"
     id="layer1"
     transform="translate(-6.7736464,-15.064605)">
    <path
       id="path6175"
       style="font-weight:normal;font-size:0.566743px;font-family:sans-serif;-inkscape-font-specification:sans-serif;stroke-width:0.0137677;fill:#000064;fill-opacity:1"
       d="m 7.8351271,15.893297 c -0.2013664,0 -0.3694387,0.02531 -0.5041874,0.07592 -0.133236,0.04982 -0.2233295,0.107549 -0.2702639,0.173191 -0.045423,0.06564 -0.068138,0.165684 -0.068138,0.300121 v 1.291828 c 0,0.108343 -0.027229,0.22934 -0.081732,0.36299 h 0.3747088 c 0.054505,-0.108343 0.081765,-0.238428 0.081765,-0.390268 v -0.220644 c 0.1332343,0.08304 0.3058176,0.124558 0.5177817,0.124558 0.186227,0 0.3459859,-0.01859 0.4792201,-0.05577 0.1347484,-0.03717 0.2528429,-0.09924 0.354284,-0.186231 0.1029536,-0.08778 0.1544128,-0.187034 0.1544128,-0.29775 0,-0.203239 -0.1930443,-0.352312 -0.5791225,-0.447212 0.2588994,-0.09095 0.3883696,-0.207599 0.3883696,-0.349949 0,-0.121782 -0.08178,-0.215498 -0.2452966,-0.28114 -0.1620035,-0.06643 -0.3625851,-0.09965 -0.6018019,-0.09965 z m 0.00405,0.08187 c 0.00168,-8e-6 0.00332,0 0.00501,0 0.1347483,0 0.2437572,0.02649 0.3270288,0.07947 0.084785,0.05299 0.1271912,0.129298 0.1271912,0.22894 0,0.111503 -0.053746,0.214712 -0.1612429,0.309613 -0.1196159,-0.01897 -0.2195375,-0.02846 -0.2997814,-0.02846 -0.1286943,0 -0.193041,0.01893 -0.193041,0.05689 0,0.04192 0.076462,0.06288 0.2293812,0.06288 0.072674,0 0.1544209,-0.006 0.2452634,-0.01777 0.098411,0.04667 0.1786453,0.114676 0.2407205,0.204035 0.06359,0.08857 0.095393,0.175555 0.095393,0.260964 0,0.111502 -0.04769,0.206411 -0.1430732,0.284708 -0.095383,0.0775 -0.2452829,0.116245 -0.4496768,0.116245 -0.2119643,0 -0.3769745,-0.05102 -0.4950693,-0.153031 v -1.028474 c 0,-0.09965 0.014374,-0.17121 0.043136,-0.214704 0.028768,-0.04428 0.080999,-0.08226 0.1567006,-0.11389 0.076008,-0.03114 0.1667036,-0.04695 0.2720543,-0.04743 z m 4.4676619,0.213526 c -0.187741,0.110723 -0.34824,0.190989 -0.481476,0.240805 -0.133231,0.04982 -0.296728,0.09331 -0.490526,0.130481 l -0.04543,0.08779 h 0.308858 l -0.358826,0.641722 c -0.03936,0.07197 -0.05906,0.130875 -0.05906,0.176742 0,0.04192 0.02801,0.07672 0.08401,0.104399 0.05753,0.02689 0.137794,0.04033 0.240756,0.04033 0.121124,0 0.244499,-0.02215 0.370166,-0.06643 0.125669,-0.04428 0.24073,-0.113879 0.345198,-0.208781 l -0.07952,-0.02608 c -0.09234,0.06881 -0.173353,0.11704 -0.243006,0.144718 -0.02725,0.01107 -0.05377,0.01661 -0.07951,0.01661 -0.01664,0 -0.0318,-0.0036 -0.04543,-0.01065 -0.0137,-0.0079 -0.02039,-0.01701 -0.02039,-0.02729 0,-0.02215 0.0121,-0.05456 0.03635,-0.09726 l 0.379279,-0.688034 h 0.292945 l 0.07951,-0.136405 h -0.297518 l 0.181701,-0.322653 z m 1.363419,0.289402 c -0.151866,5.73e-4 -0.314158,0.03696 -0.486881,0.109127 -0.211959,0.08778 -0.383059,0.204031 -0.513269,0.348753 -0.130217,0.143931 -0.19533,0.271659 -0.19533,0.383167 0,0.07513 0.03106,0.142741 0.09315,0.20284 0.06208,0.05931 0.162745,0.08897 0.30203,0.08897 0.10598,0 0.205911,-0.01898 0.299773,-0.05694 0.161995,-0.06564 0.330808,-0.177141 0.506441,-0.334516 l -0.05448,0.09609 c -0.04845,0.08383 -0.07269,0.141175 -0.07269,0.172013 0,0.03558 0.02271,0.06524 0.06814,0.08897 0.04542,0.02294 0.111274,0.03439 0.197584,0.03439 0.140794,0 0.271746,-0.02332 0.39288,-0.06996 0.122634,-0.04745 0.237701,-0.122582 0.345198,-0.225391 l -0.07947,-0.02136 c -0.08629,0.06247 -0.140777,0.09884 -0.163498,0.109127 -0.056,0.02531 -0.09995,0.03798 -0.131732,0.03798 -0.01369,0 -0.02736,-0.0036 -0.04094,-0.01067 -0.0121,-0.0071 -0.01811,-0.0154 -0.01811,-0.02491 0,-0.0055 0.0023,-0.01422 0.0069,-0.02608 l 0.04543,-0.0961 0.440559,-0.788848 -0.538307,0.01657 -0.08175,0.145913 c -0.02423,-0.06801 -0.0621,-0.114679 -0.113553,-0.13999 -0.05148,-0.0261 -0.119634,-0.03914 -0.204415,-0.03914 -0.0011,0 -0.0024,-5e-6 -0.0035,0 z m -2.988583,3.4e-5 c -0.24936,6.06e-4 -0.497973,0.03975 -0.74584,0.11744 -0.248302,0.07829 -0.4451151,0.18229 -0.5904622,0.311986 -0.1438325,0.129696 -0.2157537,0.259393 -0.2157537,0.389089 0,0.08304 0.04843,0.156189 0.1453278,0.21945 0.096898,0.06327 0.2717697,0.09491 0.5246122,0.09491 0.1998556,0 0.3823249,-0.02333 0.5473599,-0.06998 0.165033,-0.04666 0.334582,-0.124957 0.508699,-0.234881 l -0.06814,-0.03203 c -0.140806,0.06722 -0.264955,0.114279 -0.372453,0.141168 -0.105981,0.02689 -0.211961,0.04033 -0.317948,0.04033 -0.1105203,0 -0.1990976,-0.0178 -0.26572,-0.05339 -0.065102,-0.03559 -0.097648,-0.08305 -0.097648,-0.142362 0,-0.03321 0.00683,-0.07551 0.020457,-0.126913 0.1862111,-0.0079 0.334582,-0.01978 0.445101,-0.03559 0.165036,-0.02372 0.314192,-0.05812 0.447426,-0.103204 0.13324,-0.04587 0.24376,-0.105973 0.331573,-0.180308 0.0636,-0.05457 0.09538,-0.110733 0.09538,-0.168462 0,-0.04824 -0.03258,-0.08818 -0.09769,-0.119813 -0.06511,-0.03163 -0.16122,-0.04744 -0.288399,-0.04744 -0.0019,0 -0.0039,-5e-6 -0.0059,0 z m 3.03328,0.07356 h 6.5e-5 c 7.15e-4,-6e-6 0.0015,0 0.0023,0 0.04695,0 0.08402,0.0099 0.111274,0.02965 0.03783,0.02847 0.05677,0.07473 0.05677,0.138795 0,0.11546 -0.07116,0.247532 -0.213464,0.396208 -0.08026,0.08462 -0.170329,0.156184 -0.270265,0.214703 -0.06965,0.04113 -0.138541,0.06169 -0.206668,0.06169 -0.0318,0 -0.06133,-0.0091 -0.08856,-0.02729 -0.02573,-0.01898 -0.03859,-0.04941 -0.03859,-0.09132 0,-0.109135 0.05827,-0.238447 0.174838,-0.387911 0.118094,-0.150262 0.22787,-0.2499 0.329319,-0.298927 0.04915,-0.02334 0.09679,-0.03521 0.143005,-0.03559 z m -3.281164,0.0048 c 5.69e-4,-3e-6 0.0011,0 0.0017,0 0.03635,0 0.0659,0.0063 0.08861,0.01898 0.02423,0.01265 0.03635,0.03006 0.03635,0.0522 0,0.0522 -0.02573,0.108343 -0.07722,0.168445 -0.05148,0.05931 -0.112801,0.108723 -0.183959,0.148268 -0.06965,0.03875 -0.141569,0.06722 -0.215754,0.08542 -0.07268,0.01739 -0.1756228,0.03123 -0.3088582,0.04152 h -3.31e-5 c 0.1105254,-0.19375 0.2490783,-0.338866 0.4156233,-0.435348 0.09014,-0.05257 0.171327,-0.07907 0.243576,-0.07947 z m -1.2307951,1.162904 c -0.05344,2.1e-4 -0.1022557,0.0037 -0.1464882,0.01048 -0.045312,0.007 -0.084057,0.01709 -0.1161835,0.03038 -0.033138,0.01368 -0.058478,0.03045 -0.076063,0.05029 -0.017583,0.01984 -0.026393,0.04237 -0.026393,0.06755 0,0.02655 0.00913,0.04989 0.027387,0.07002 0.018261,0.01998 0.043634,0.03646 0.076095,0.04947 0.033139,0.01327 0.072047,0.02305 0.1166796,0.02935 0.044973,0.0061 0.094826,0.0092 0.1496051,0.0092 0.029079,0 0.055635,-9.37e-4 0.079645,-0.0029 0.024346,-0.0018 0.046815,-0.004 0.067441,-0.0066 0.024346,-0.0031 0.043978,-0.0061 0.058853,-0.009 0.015221,-0.0029 0.032134,-0.006 0.05073,-0.0092 l -3.32e-5,-0.04754 h -0.0071 c -0.036858,0.01341 -0.076403,0.02348 -0.1186684,0.03019 -0.042269,0.0067 -0.08759,0.01006 -0.1359441,0.01006 -0.035169,0 -0.068649,-0.0024 -0.1004341,-0.0072 -0.031447,-0.0049 -0.05899,-0.01245 -0.082661,-0.02258 -0.022656,-0.0097 -0.041263,-0.02231 -0.055804,-0.03777 -0.014194,-0.01547 -0.021286,-0.03393 -0.021286,-0.05542 0,-0.02053 0.00643,-0.03861 0.019264,-0.05421 0.013184,-0.01574 0.031445,-0.02874 0.054776,-0.039 0.024009,-0.01053 0.051232,-0.01825 0.081665,-0.02319 0.030772,-0.005 0.065239,-0.0076 0.1034497,-0.0076 0.046663,0 0.090453,0.0032 0.1313684,0.0097 0.040915,0.0065 0.082183,0.01669 0.1237751,0.03079 h 0.00763 v -0.04839 c -0.049369,-0.01 -0.094372,-0.01697 -0.1349494,-0.02094 -0.040239,-0.004 -0.080645,-0.006 -0.1212217,-0.006 -8.664e-4,0 -0.00172,-10e-7 -0.00257,0 v -1.8e-5 c -8.505e-4,2e-6 -0.0017,-3e-6 -0.00255,0 z m 2.5679901,0 c -0.05342,2.11e-4 -0.102279,0.0037 -0.14649,0.01048 -0.04531,0.007 -0.08402,0.01709 -0.116138,0.03038 -0.03314,0.01368 -0.05849,0.03045 -0.07606,0.05029 -0.01759,0.01984 -0.02637,0.04237 -0.02637,0.06755 0,0.02655 0.0091,0.04989 0.02746,0.07002 0.01826,0.01998 0.04357,0.03646 0.07603,0.04947 0.03314,0.01327 0.07198,0.02305 0.116616,0.02935 0.04498,0.0061 0.0949,0.0092 0.149669,0.0092 0.02909,0 0.05564,-9.37e-4 0.07963,-0.0029 0.02435,-0.0018 0.04687,-0.004 0.06746,-0.0066 0.02435,-0.0031 0.04393,-0.0061 0.05879,-0.009 0.01516,-0.0029 0.03214,-0.006 0.05076,-0.0092 l -1.65e-4,-0.04754 h -0.007 c -0.03687,0.01341 -0.0764,0.02348 -0.118667,0.03019 -0.04228,0.0067 -0.08759,0.01006 -0.135944,0.01006 -0.03519,0 -0.06868,-0.0024 -0.100433,-0.0072 -0.03145,-0.0049 -0.05898,-0.01245 -0.08265,-0.02258 -0.02266,-0.0097 -0.04126,-0.02231 -0.05579,-0.03777 -0.01417,-0.01547 -0.02129,-0.03393 -0.02129,-0.05542 0,-0.02053 0.0063,-0.03861 0.01927,-0.05421 0.0132,-0.01574 0.03149,-0.02874 0.05482,-0.039 0.024,-0.01053 0.05125,-0.01825 0.08166,-0.02319 0.03077,-0.005 0.06523,-0.0076 0.103448,-0.0076 0.04668,0 0.0905,0.0032 0.131404,0.0097 0.04092,0.0065 0.08218,0.01669 0.123774,0.03079 h 0.0077 v -0.04839 c -0.04936,-0.01 -0.09429,-0.01697 -0.134885,-0.02094 -0.04023,-0.004 -0.08068,-0.006 -0.121259,-0.006 -8.67e-4,0 -0.0018,-10e-7 -0.0025,0 l -3.4e-5,-1.8e-5 c -8.4e-4,2e-6 -0.0017,-2e-6 -0.0025,0 z m 2.424548,7e-5 c -0.07959,3.74e-4 -0.145472,0.0086 -0.197648,0.02464 -0.05342,0.01628 -0.08013,0.0372 -0.08013,0.0628 0,0.0223 0.01598,0.04044 0.04819,0.0544 0.03247,0.01382 0.08218,0.0236 0.149142,0.02936 0.03314,0.0027 0.06438,0.0049 0.09381,0.0067 0.02977,0.0018 0.05736,0.004 0.08269,0.0067 0.03349,0.0036 0.05834,0.0085 0.07457,0.01498 0.01657,0.0065 0.02485,0.01641 0.02485,0.02997 0,0.01574 -0.01735,0.02833 -0.05214,0.03777 -0.03447,0.0094 -0.08283,0.01417 -0.145062,0.01417 -0.04395,0 -0.09099,-0.0035 -0.141051,-0.01048 -0.05007,-0.007 -0.0942,-0.01689 -0.132395,-0.02975 h -0.0071 v 0.05092 c 0.04498,0.0081 0.08911,0.01416 0.132394,0.01825 0.04363,0.0041 0.09264,0.0061 0.147086,0.0061 0.05071,0 0.094,-0.0025 0.129842,-0.0074 0.03618,-0.0049 0.06779,-0.01177 0.09483,-0.02052 0.02468,-0.0081 0.04381,-0.01794 0.05734,-0.02958 0.01386,-0.01164 0.02087,-0.02339 0.02087,-0.03529 l 3.3e-5,1.56e-4 c 0,-0.0219 -0.01419,-0.03894 -0.04259,-0.05113 -0.02842,-0.01218 -0.07064,-0.02129 -0.1268,-0.02731 -0.02773,-0.0029 -0.06157,-0.0057 -0.101454,-0.0084 -0.03992,-0.0027 -0.07069,-0.0051 -0.09232,-0.007 -0.04092,-0.0038 -0.06948,-0.0094 -0.0857,-0.01662 -0.01631,-0.0072 -0.02434,-0.01726 -0.02434,-0.03 0,-0.01423 0.01614,-0.02584 0.04866,-0.03486 0.03282,-0.009 0.07609,-0.01354 0.129842,-0.01354 0.04903,0 0.09688,0.0032 0.143537,0.0098 0.04699,0.0065 0.08486,0.01458 0.1136,0.02444 h 0.0071 v -0.04805 c -0.03414,-0.006 -0.07336,-0.0111 -0.117679,-0.01519 -0.0443,-0.0041 -0.093,-0.0061 -0.146089,-0.0061 -0.0012,0 -0.0025,-4e-6 -0.0039,0 h -3.4e-5 c -6.17e-4,2e-6 -0.0012,-3e-6 -0.0018,0 z m -3.044222,0.0033 v 0.04003 h 0.107516 v -0.04003 z m 1.010363,0 v 0.04003 h 0.107527 v -0.04003 z m -4.6790702,0.002 v 0.03613 h 0.2698329 v 0.269536 h 0.1004341 v -0.269536 h 0.2698327 v -0.03613 z m 0.7415596,0 v 0.305664 h 0.4975558 v -0.03613 H 8.3245927 v -0.113526 h 0.3971229 v -0.03613 H 8.3245927 v -0.08376 h 0.3971229 v -0.03613 z m 1.3821549,0 v 0.305664 h 0.1004341 v -0.149654 h 0.3768636 v 0.149654 h 0.100433 v -0.305664 h -0.100433 v 0.119882 H 9.7067476 v -0.119882 z m 0.7805857,0 v 0.305664 h 0.09387 v -0.273433 l 0.358063,0.273433 h 0.124267 v -0.305664 h -0.09383 v 0.249619 l -0.326628,-0.249619 z m 2.259163,0 -0.274906,0.305664 h 0.101958 l 0.07403,-0.08519 h 0.326662 l 0.07403,0.08519 h 0.107 l -0.274874,-0.305664 z m 0.523452,0 v 0.305664 h 0.09383 v -0.273433 l 0.358095,0.273433 h 0.124242 v -0.305664 h -0.09383 v 0.249619 l -0.326633,-0.249619 z m -0.45906,0.03551 0.132397,0.15007 h -0.265259 z m -1.553015,0.04085 v 0.229305 h 0.09536 v -0.229305 z m 1.010365,0 v 0.229305 h 0.09536 v -0.229305 z" />
  </g>
</svg>
